<?xml version="1.0" encoding="utf-8"?>
<!-- Generator: Adobe Illustrator 21.0.2, SVG Export Plug-In . SVG Version: 6.00 Build 0)  -->
<svg version="1.1" id="Layer_1" xmlns="http://www.w3.org/2000/svg" xmlns:xlink="http://www.w3.org/1999/xlink" x="0px" y="0px"
	 viewBox="0 0 1492.8 1040.9" style="enable-background:new 0 0 1492.8 1040.9;" xml:space="preserve">
<style type="text/css">
	.st0{fill:none;stroke:#CCCCCC;stroke-width:20;stroke-miterlimit:10;}
	.st1{fill:none;stroke:#B00B55;stroke-width:20;stroke-miterlimit:10;}
</style>
<title>ocb 6</title>
<path class="st0" d="M495.5,252.7c0,134-108.7,242.7-242.7,242.7S10,386.8,10,252.7S118.7,10,252.7,10S495.5,118.7,495.5,252.7z"/>
<path class="st0" d="M252.7,402.7c-82.8,0-150-67.2-150-150s67.2-150,150-150s150,67.2,150,150l0,0
	C402.7,335.6,335.6,402.7,252.7,402.7z"/>
<path class="st0" d="M888,358.8c-58.6,58.6-153.6,58.6-212.1,0c-58.6-58.6-58.6-153.6,0-212.1c58.6-58.6,153.6-58.6,212.1,0
	c0,0,0,0,0,0l65.6-65.6C908.1,35.5,846.3,9.9,781.9,10c-134.1,0-242.7,108.7-242.7,242.7s108.7,242.7,242.7,242.7
	c64.4,0.1,126.2-25.5,171.6-71.1L888,358.8z"/>
<path class="st0" d="M1240.1,402.7c-82.8,0-150-67.2-150-150s67.2-150,150-150s150,67.2,150,150S1322.9,402.7,1240.1,402.7z"/>
<path class="st0" d="M997.3,252.7V10h92.7v51.9c42.7-33.7,95.6-52,150-51.9c134.1,0,242.7,108.7,242.7,242.7
	s-108.7,242.7-242.7,242.7S997.3,386.8,997.3,252.7z"/>
<path class="st0" d="M517.3,495.5c-12.1,0-21.9-9.8-21.9-21.9s9.8-21.9,21.9-21.9s21.9,9.8,21.9,21.9S529.4,495.5,517.3,495.5
	L517.3,495.5z"/>
<path class="st0" d="M997.3,495.5c-12.1,0-21.9-9.8-21.9-21.9s9.8-21.9,21.9-21.9s21.9,9.8,21.9,21.9S1009.4,495.5,997.3,495.5
	L997.3,495.5z"/>
<path class="st1" d="M495.5,788.2c0,134-108.7,242.7-242.7,242.7S10,922.2,10,788.2s108.7-242.7,242.7-242.7
	S495.5,654.1,495.5,788.2z"/>
<path class="st1" d="M252.7,938.2c-82.8,0-150-67.2-150-150s67.2-150,150-150c82.8,0,150,67.2,150,150l0,0
	C402.7,871,335.6,938.2,252.7,938.2z"/>
<path class="st1" d="M888,894.3c-58.6,58.6-153.6,58.6-212.1,0c-58.6-58.6-58.6-153.6,0-212.1c58.6-58.6,153.6-58.6,212.1,0
	c0,0,0,0,0,0l65.6-65.6C908.1,571,846.4,545.4,782,545.5c-134.1,0-242.7,108.7-242.7,242.7s108.7,242.7,242.7,242.7
	c64.4,0.1,126.2-25.5,171.6-71.1L888,894.3z"/>
<path class="st1" d="M1240.1,938.2c-82.8,0-150-67.2-150-150s67.2-150,150-150s150,67.2,150,150S1322.9,938.2,1240.1,938.2z"/>
<path class="st1" d="M997.3,788.2V545.5h92.7v51.9c42.7-33.7,95.6-52,150-51.9c134.1,0,242.7,108.7,242.7,242.7
	s-108.7,242.7-242.7,242.7S997.3,922.2,997.3,788.2z"/>
<path class="st1" d="M517.3,1030.9c-12.1,0-21.9-9.8-21.9-21.9s9.8-21.9,21.9-21.9c12.1,0,21.9,9.8,21.9,21.9
	S529.4,1030.9,517.3,1030.9L517.3,1030.9z"/>
<path class="st1" d="M997.3,1030.9c-12.1,0-21.9-9.8-21.9-21.9s9.8-21.9,21.9-21.9s21.9,9.8,21.9,21.9S1009.4,1030.9,997.3,1030.9
	L997.3,1030.9z"/>
</svg>
